<?xml version="1.0" encoding="UTF-8" standalone="no"?>
<svg xmlns="http://www.w3.org/2000/svg" xmlns:xlink="http://www.w3.org/1999/xlink" width="800" height="600" viewBox="0 0 800 600">
  <defs>
    <linearGradient id="grad1" x1="0%" y1="0%" x2="100%" y2="100%">
      <stop offset="0%" stop-color="#000022" stop-opacity="0.8" />
      <stop offset="100%" stop-color="#000000" stop-opacity="0.95" />
    </linearGradient>
    <filter id="blur1" x="-50%" y="-50%" width="200%" height="200%">
      <feGaussianBlur in="SourceGraphic" stdDeviation="5" />
    </filter>
  </defs>
  
  <!-- Background -->
  <rect width="800" height="600" fill="url(#grad1)" />
  
  <!-- Casino Elements -->
  <g opacity="0.1">
    <!-- Spades -->
    <path d="M100,100 C100,80 80,60 50,60 C20,60 0,80 0,100 C0,120 20,140 40,160 C60,140 80,120 80,100" fill="#FFFFFF" transform="translate(100, 100)" />
    <path d="M40,160 L40,170 C40,180 30,190 20,190 L80,190 C70,190 60,180 60,170 L60,160" fill="#FFFFFF" transform="translate(100, 100)" />
    
    <!-- Hearts -->
    <path d="M20,40 C20,20 0,0 0,0 C0,0 -20,20 -20,40 C-20,60 0,90 0,90 C0,90 20,60 20,40" fill="#FFFFFF" transform="translate(300, 150) scale(1.5)" />
    
    <!-- Diamonds -->
    <path d="M0,0 L40,40 L0,80 L-40,40 Z" fill="#FFFFFF" transform="translate(500, 200)" />
    
    <!-- Clubs -->
    <circle cx="0" cy="-20" r="20" fill="#FFFFFF" transform="translate(200, 300)" />
    <circle cx="-20" cy="10" r="20" fill="#FFFFFF" transform="translate(200, 300)" />
    <circle cx="20" cy="10" r="20" fill="#FFFFFF" transform="translate(200, 300)" />
    <path d="M0,10 L0,50 L-10,60 L10,60 L0,50" fill="#FFFFFF" transform="translate(200, 300)" />
    
    <!-- Dice -->
    <rect x="0" y="0" width="40" height="40" rx="5" fill="#FFFFFF" transform="translate(400, 300)" />
    <circle cx="10" cy="10" r="5" fill="#000022" transform="translate(400, 300)" />
    <circle cx="30" cy="30" r="5" fill="#000022" transform="translate(400, 300)" />
    
    <!-- Chips -->
    <circle cx="0" cy="0" r="25" fill="#FFFFFF" transform="translate(600, 300)" />
    <circle cx="0" cy="0" r="20" fill="#000022" stroke="#FFFFFF" stroke-width="2" transform="translate(600, 300)" />
    
    <!-- Cards -->
    <rect x="0" y="0" width="50" height="70" rx="5" fill="#FFFFFF" transform="translate(100, 400)" />
    <rect x="0" y="0" width="50" height="70" rx="5" fill="#FFFFFF" transform="translate(700, 100)" />
    
    <!-- Roulette -->
    <circle cx="0" cy="0" r="50" fill="#FFFFFF" stroke="#000022" stroke-width="5" transform="translate(550, 450)" />
    <circle cx="0" cy="0" r="45" fill="#000022" transform="translate(550, 450)" />
  </g>
  
  <!-- Floating Particles -->
  <g opacity="0.15">
    <circle cx="150" cy="150" r="3" fill="#FFFFFF" filter="url(#blur1)" />
    <circle cx="250" cy="350" r="2" fill="#FFFFFF" filter="url(#blur1)" />
    <circle cx="350" cy="250" r="4" fill="#FFFFFF" filter="url(#blur1)" />
    <circle cx="450" cy="450" r="3" fill="#FFFFFF" filter="url(#blur1)" />
    <circle cx="550" cy="150" r="2" fill="#FFFFFF" filter="url(#blur1)" />
    <circle cx="650" cy="350" r="3" fill="#FFFFFF" filter="url(#blur1)" />
  </g>
</svg>