<?xml version="1.0" encoding="UTF-8"?>
<svg width="60" height="36" viewBox="0 0 60 36" fill="none" xmlns="http://www.w3.org/2000/svg">
  <circle cx="21" cy="18" r="12" fill="#EB001B"/>
  <circle cx="39" cy="18" r="12" fill="#F79E1B"/>
  <path fill-rule="evenodd" clip-rule="evenodd" d="M30 27.3C33.7 24.6 36 21.1 36 18C36 14.9 33.7 11.4 30 8.7C26.3 11.4 24 14.9 24 18C24 21.1 26.3 24.6 30 27.3Z" fill="#FF5F00"/>
  <path d="M11.3208 29V27.7213C11.3208 27.0246 10.875 26.6229 10.125 26.6229C9.75 26.6229 9.32083 26.7541 9.04167 27.1803C8.8125 26.8098 8.48333 26.6229 8.00417 26.6229C7.6875 26.6229 7.375 26.7295 7.125 27.0492V26.6967H6.54167V29H7.125V27.6967C7.125 27.2459 7.39583 27.0246 7.7875 27.0246C8.17917 27.0246 8.375 27.2705 8.375 27.6967V29H8.95833V27.6967C8.95833 27.2459 9.25 27.0246 9.61667 27.0246C10.0083 27.0246 10.2042 27.2705 10.2042 27.6967V29H11.3208ZM18.5458 26.6967H17.5625V25.8525H16.9792V26.6967H16.4458V27.0984H16.9792V28.2213C16.9792 28.7459 17.2583 29.0492 17.8292 29.0492C18.0833 29.0492 18.3625 28.9672 18.5458 28.8607L18.3875 28.459C18.2292 28.5656 18.0333 28.6229 17.875 28.6229C17.6208 28.6229 17.5625 28.459 17.5625 28.1967V27.0984H18.5458V26.6967ZM24.2583 26.6229C23.8917 26.6229 23.6333 26.8098 23.4583 27.0492V26.6967H22.875V29H23.4583V27.672C23.4583 27.2459 23.6875 27.0492 24.05 27.0492C24.1625 27.0492 24.2917 27.0738 24.375 27.0984L24.5458 26.6721C24.4583 26.6229 24.3458 26.6229 24.2583 26.6229ZM14.8125 26.9672C14.5 26.7459 14.075 26.6229 13.625 26.6229C12.8375 26.6229 12.3167 27.0246 12.3167 27.6721C12.3167 28.2459 12.7 28.5492 13.375 28.6475L13.6875 28.6967C14.025 28.7459 14.2 28.8525 14.2 29.0246C14.2 29.2459 13.9583 29.3934 13.5458 29.3934C13.1333 29.3934 12.8208 29.2213 12.6333 29.0492L12.375 29.4016C12.6792 29.6721 13.0792 29.7951 13.5333 29.7951C14.3917 29.7951 14.7917 29.3443 14.7917 29C14.7917 28.3934 14.3958 28.1213 13.7458 28.0246L13.4333 27.9754C13.1625 27.9262 12.9167 27.8689 12.9167 27.6475C12.9167 27.4508 13.1417 27.3197 13.5333 27.3197C13.9 27.3197 14.2583 27.4754 14.4042 27.5738L14.8125 26.9672ZM30.0958 26.6229C29.7292 26.6229 29.4708 26.8098 29.2958 27.0492V26.6967H28.7125V29H29.2958V27.672C29.2958 27.2459 29.525 27.0492 29.8875 27.0492C30 27.0492 30.1292 27.0738 30.2125 27.0984L30.3833 26.6721C30.2958 26.6229 30.1833 26.6229 30.0958 26.6229ZM21.8958 27.8525C21.8958 28.5246 22.3917 29.0492 23.1375 29.0492C23.5375 29.0492 23.8042 28.9426 24.0625 28.7213L23.8 28.3689C23.6042 28.5246 23.3875 28.6229 23.1458 28.6229C22.6875 28.6229 22.3458 28.2951 22.3458 27.8525C22.3458 27.4098 22.6875 27.0836 23.1458 27.0836C23.3875 27.0836 23.6042 27.1803 23.8 27.3361L24.0625 26.9836C23.8042 26.7623 23.5375 26.6557 23.1375 26.6557C22.3917 26.6557 21.8958 27.1803 21.8958 27.8525ZM28.2042 27.8525V26.6967H27.6208V27.0492C27.4458 26.8098 27.1792 26.6967 26.8375 26.6967C26.2 26.6967 25.6875 27.1803 25.6875 27.8525C25.6875 28.5246 26.2 29.0082 26.8375 29.0082C27.1875 29.0082 27.4458 28.8934 27.6208 28.6557V29.0082H28.2042V27.8525ZM26.2333 27.8525C26.2333 27.4344 26.5417 27.0836 27 27.0836C27.4458 27.0836 27.7708 27.4098 27.7708 27.8525C27.7708 28.2705 27.4458 28.5984 27 28.5984C26.5417 28.5984 26.2333 28.2705 26.2333 27.8525ZM19.8875 26.6967V26.4016H19.3042V29H19.8875V27.8525C19.8875 27.3771 20.15 27.1066 20.5708 27.1066H20.6042V26.5984C20.2083 26.5574 19.9792 26.7951 19.8875 26.6967ZM36.1708 27.8525C36.1708 27.1803 36.6833 26.6967 37.3375 26.6967C37.6917 26.6967 37.95 26.8098 38.2 27.0738L38.4542 26.7213C38.1333 26.3934 37.7667 26.2377 37.325 26.2377C36.45 26.2377 35.75 26.9344 35.75 27.8525C35.75 28.7705 36.45 29.4672 37.325 29.4672C37.7667 29.4672 38.1333 29.3115 38.4542 28.9836L38.2 28.6311C37.95 28.8934 37.6917 29.0082 37.3375 29.0082C36.6833 29.0082 36.1708 28.5246 36.1708 27.8525ZM42.575 27.8525V25.8525H41.9917V27.0492C41.8167 26.8098 41.55 26.6967 41.2083 26.6967C40.5708 26.6967 40.0583 27.1803 40.0583 27.8525C40.0583 28.5246 40.5708 29.0082 41.2083 29.0082C41.5583 29.0082 41.8167 28.8934 41.9917 28.6557V29.0082H42.575V27.8525ZM40.6083 27.8525C40.6083 27.4344 40.9167 27.0836 41.375 27.0836C41.8208 27.0836 42.1458 27.4098 42.1458 27.8525C42.1458 28.2705 41.8208 28.5984 41.375 28.5984C40.9167 28.5984 40.6083 28.2705 40.6083 27.8525ZM34.3 27.8525V26.6967H33.7167V27.0492C33.5417 26.8098 33.275 26.6967 32.9333 26.6967C32.2958 26.6967 31.7833 27.1803 31.7833 27.8525C31.7833 28.5246 32.2958 29.0082 32.9333 29.0082C33.2833 29.0082 33.5417 28.8934 33.7167 28.6557V29.0082H34.3V27.8525ZM32.3292 27.8525C32.3292 27.4344 32.6375 27.0836 33.0958 27.0836C33.5417 27.0836 33.8667 27.4098 33.8667 27.8525C33.8667 28.2705 33.5417 28.5984 33.0958 28.5984C32.6375 28.5984 32.3292 28.2705 32.3292 27.8525ZM48.4458 27.8525V25.4508H47.8625V27.0492C47.6875 26.8098 47.4208 26.6967 47.0792 26.6967C46.4417 26.6967 45.9292 27.1803 45.9292 27.8525C45.9292 28.5246 46.4417 29.0082 47.0792 29.0082C47.4292 29.0082 47.6875 28.8934 47.8625 28.6557V29.0082H48.4458V27.8525ZM46.475 27.8525C46.475 27.4344 46.7833 27.0836 47.2417 27.0836C47.6875 27.0836 48.0125 27.4098 48.0125 27.8525C48.0125 28.2705 47.6875 28.5984 47.2417 28.5984C46.7833 28.5984 46.475 28.2705 46.475 27.8525ZM45.3708 27.8525V26.6967H44.7875V27.0492C44.6125 26.8098 44.3458 26.6967 44.0042 26.6967C43.3667 26.6967 42.8542 27.1803 42.8542 27.8525C42.8542 28.5246 43.3667 29.0082 44.0042 29.0082C44.3542 29.0082 44.6125 28.8934 44.7875 28.6557V29.0082H45.3708V27.8525ZM43.4 27.8525C43.4 27.4344 43.7083 27.0836 44.1667 27.0836C44.6125 27.0836 44.9375 27.4098 44.9375 27.8525C44.9375 28.2705 44.6125 28.5984 44.1667 28.5984C43.7083 28.5984 43.4 28.2705 43.4 27.8525Z" fill="white"/>
</svg>